# xmcd
#
# Track frame offsets: 
#        150
#        12401
#        24116
#        36143
#        48187
#        59592
#        75195
#        88760
#        102227
#        116395
#        128676
#        141253
#        155098
#        167172
#
# Disc length: 2377 seconds
#
# Revision: 3
# Processed by: cddbd v1.5.2PL0 Copyright (c) Steve Scherf et al.
# Submitted via: ExactAudioCopy v1.3
#
DISCID=a909470e
DTITLE=Stompin' Tom Connors - Believe In Your Country
DYEAR=1992
DGENRE=Country
TTITLE0=Johnny Maple
TTITLE1=My Home Cradled Out in the Waves
TTITLE2=Prairie Moon
TTITLE3=She Called From Montreal
TTITLE4=Lover's Lake
TTITLE5=Lena Kathleen
TTITLE6=Believe In Your Country
TTITLE7=Alberta Rose
TTITLE8=Sunshine and Teardrops
TTITLE9=My Sleeping Carmello
TTITLE10=Looking For Someone To Hold
TTITLE11=Paper Smile
TTITLE12=Smile Away Your Memory
TTITLE13=The Ballinafad Ball
EXTD=
EXTT0=
EXTT1=
EXTT2=
EXTT3=
EXTT4=
EXTT5=
EXTT6=
EXTT7=
EXTT8=
EXTT9=
EXTT10=
EXTT11=
EXTT12=
EXTT13=
PLAYORDER=
